<svg width="49" height="54" viewBox="0 0 49 54" fill="none" xmlns="http://www.w3.org/2000/svg">
<path d="M5.38855 53.8855C3.9067 53.8855 2.63815 53.3579 1.58289 52.3026C0.527629 51.2474 0 49.9788 0 48.4969V10.7771C0 9.29522 0.527629 8.02666 1.58289 6.9714C2.63815 5.91615 3.9067 5.38852 5.38855 5.38852H8.08283V-3.8147e-05H13.4714V5.38852H35.0256V-3.8147e-05H40.4142V5.38852H43.1084C44.5903 5.38852 45.8588 5.91615 46.9141 6.9714C47.9694 8.02666 48.497 9.29522 48.497 10.7771V48.4969C48.497 49.9788 47.9694 51.2474 46.9141 52.3026C45.8588 53.3579 44.5903 53.8855 43.1084 53.8855H5.38855ZM5.38855 48.4969H43.1084V21.5542H5.38855V48.4969ZM5.38855 16.1656H43.1084V10.7771H5.38855V16.1656ZM24.2485 32.3313C23.4851 32.3313 22.8452 32.0731 22.3288 31.5567C21.8124 31.0403 21.5542 30.4004 21.5542 29.637C21.5542 28.8736 21.8124 28.2337 22.3288 27.7173C22.8452 27.2009 23.4851 26.9427 24.2485 26.9427C25.0119 26.9427 25.6518 27.2009 26.1682 27.7173C26.6846 28.2337 26.9428 28.8736 26.9428 29.637C26.9428 30.4004 26.6846 31.0403 26.1682 31.5567C25.6518 32.0731 25.0119 32.3313 24.2485 32.3313ZM13.4714 32.3313C13.4714 32.3313 13.2805 32.3313 12.8989 32.3313C12.5172 32.3313 12.0681 32.0731 11.5517 31.5567C11.0353 31.0403 10.7771 30.4004 10.7771 29.637C10.7771 28.8736 11.0353 28.2337 11.5517 27.7173C12.0681 27.2009 12.708 26.9427 13.4714 26.9427C14.2348 26.9427 14.8747 27.2009 15.3911 27.7173C15.9075 28.2337 16.1657 28.8736 16.1657 29.637C16.1657 30.4004 15.9075 31.0403 15.3911 31.5567C14.8747 32.0731 14.2348 32.3313 13.4714 32.3313ZM35.0256 32.3313C34.2622 32.3313 33.6223 32.0731 33.1059 31.5567C32.5895 31.0403 32.3313 30.4004 32.3313 29.637C32.3313 28.8736 32.5895 28.2337 33.1059 27.7173C33.6223 27.2009 34.2622 26.9427 35.0256 26.9427C35.789 26.9427 36.4289 27.2009 36.9453 27.7173C37.4617 28.2337 37.7199 28.8736 37.7199 29.637C37.7199 30.4004 37.4617 31.0403 36.9453 31.5567C36.4289 32.0731 35.789 32.3313 35.0256 32.3313ZM24.2485 43.1084C23.4851 43.1084 22.8452 42.8502 22.3288 42.3338C21.8124 41.8174 21.5542 41.1775 21.5542 40.4141C21.5542 39.6507 21.8124 39.0108 22.3288 38.4944C22.8452 37.978 23.4851 37.7198 24.2485 37.7198C25.0119 37.7198 25.6518 37.978 26.1682 38.4944C26.6846 39.0108 26.9428 39.6507 26.9428 40.4141C26.9428 41.1775 26.6846 41.8174 26.1682 42.3338C25.6518 42.8502 25.0119 43.1084 24.2485 43.1084ZM13.4714 43.1084C13.4714 43.1084 13.2805 43.1084 12.8989 43.1084C12.5172 43.1084 12.0681 42.8502 11.5517 42.3338C11.0353 41.8174 10.7771 41.1775 10.7771 40.4141C10.7771 39.6507 11.0353 39.0108 11.5517 38.4944C12.0681 37.978 12.708 37.7198 13.4714 37.7198C14.2348 37.7198 14.8747 37.978 15.3911 38.4944C15.9075 39.0108 16.1657 39.6507 16.1657 40.4141C16.1657 41.1775 15.9075 41.8174 15.3911 42.3338C14.8747 42.8502 14.2348 43.1084 13.4714 43.1084ZM35.0256 43.1084C34.2622 43.1084 33.6223 42.8502 33.1059 42.3338C32.5895 41.8174 32.3313 41.1775 32.3313 40.4141C32.3313 39.6507 32.5895 39.0108 33.1059 38.4944C33.6223 37.978 34.2622 37.7198 35.0256 37.7198C35.789 37.7198 36.4289 37.978 36.9453 38.4944C37.4617 39.0108 37.7199 39.6507 37.7199 40.4141C37.7199 41.1775 37.4617 41.8174 36.9453 42.3338C36.4289 42.8502 35.789 43.1084 35.0256 43.1084Z" fill="white"/>
</svg>
