<svg width="58" height="57" viewBox="0 0 58 57" fill="none" xmlns="http://www.w3.org/2000/svg">
<path d="M41.3332 30.311L29.8977 19.151C28.474 17.7732 27.2684 16.2462 26.281 14.5699C25.2936 12.8936 24.7999 11.0681 24.7999 9.09325C24.7999 6.56733 25.684 4.4203 27.4521 2.65216C29.2203 0.884022 31.3673 -4.95911e-05 33.8932 -4.95911e-05C35.3628 -4.95911e-05 36.7406 0.309948 38.0265 0.929947C39.3125 1.54994 40.4147 2.38809 41.3332 3.44438C42.2517 2.38809 43.3539 1.54994 44.6399 0.929947C45.9258 0.309948 47.3035 -4.95911e-05 48.7732 -4.95911e-05C51.2991 -4.95911e-05 53.4461 0.884022 55.2143 2.65216C56.9824 4.4203 57.8665 6.56733 57.8665 9.09325C57.8665 11.0681 57.3843 12.8936 56.4198 14.5699C55.4554 16.2462 54.2613 17.7732 52.8376 19.151L41.3332 30.311ZM41.3332 22.5954L48.8421 15.2243C49.7146 14.3518 50.5183 13.4218 51.2532 12.4344C51.988 11.4469 52.3554 10.3332 52.3554 9.09325C52.3554 8.08289 52.0109 7.23326 51.322 6.54437C50.6332 5.85548 49.7835 5.51104 48.7732 5.51104C48.1302 5.51104 47.5217 5.63734 46.9476 5.88993C46.3735 6.14252 45.8798 6.52141 45.4665 7.02659L41.3332 11.9866L37.1999 7.02659C36.7865 6.52141 36.2928 6.14252 35.7188 5.88993C35.1447 5.63734 34.5362 5.51104 33.8932 5.51104C32.8829 5.51104 32.0332 5.85548 31.3443 6.54437C30.6555 7.23326 30.311 8.08289 30.311 9.09325C30.311 10.3332 30.6784 11.4469 31.4132 12.4344C32.148 13.4218 32.9517 14.3518 33.8243 15.2243L41.3332 22.5954ZM16.5333 45.4665L35.6843 50.702L52.0798 45.6042C51.8502 45.1909 51.5172 44.835 51.0809 44.5365C50.6446 44.2379 50.1509 44.0887 49.5998 44.0887H35.6843C34.4443 44.0887 33.4569 44.0428 32.7221 43.9509C31.9873 43.8591 31.2295 43.6754 30.4488 43.3998L24.0421 41.2643L25.5577 35.8909L31.1377 37.7509C31.9184 37.9806 32.8369 38.1643 33.8932 38.302C34.9495 38.4398 36.511 38.5317 38.5776 38.5776C38.5776 38.0724 38.4284 37.5902 38.1299 37.1309C37.8314 36.6717 37.4754 36.3732 37.0621 36.2354L20.9422 30.311H16.5333V45.4665ZM0 55.1109V24.7999H20.9422C21.2636 24.7999 21.5851 24.8343 21.9066 24.9032C22.2281 24.9721 22.5266 25.0525 22.8021 25.1443L38.991 31.1376C40.5065 31.6887 41.735 32.6532 42.6765 34.0309C43.618 35.4087 44.0887 36.9243 44.0887 38.5776H49.5998C51.8961 38.5776 53.848 39.3354 55.4554 40.8509C57.0628 42.3665 57.8665 44.3642 57.8665 46.8442V49.5998L35.8221 56.4886L16.5333 51.1153V55.1109H0ZM5.51109 49.5998H11.0222V30.311H5.51109V49.5998Z" fill="white"/>
</svg>
