<svg width="59" height="59" viewBox="0 0 59 59" fill="none" xmlns="http://www.w3.org/2000/svg">
<path d="M19.2752 28.5079L11.4194 20.733L14.8209 17.3315L19.1943 21.7049L27.2931 13.606L30.6946 17.0076L19.2752 28.5079ZM53.7763 58.3116L33.3672 37.9026C31.7475 39.1984 29.8847 40.2242 27.779 40.9801C25.6733 41.736 23.4326 42.114 21.057 42.114C15.1718 42.114 10.191 40.0758 6.11462 35.9993C2.03821 31.9229 0 26.9421 0 21.057C0 15.1718 2.03821 10.191 6.11462 6.11462C10.191 2.0382 15.1718 -7.62939e-06 21.057 -7.62939e-06C26.9421 -7.62939e-06 31.9229 2.0382 35.9993 6.11462C40.0758 10.191 42.114 15.1718 42.114 21.057C42.114 23.4326 41.736 25.6733 40.9801 27.779C40.2242 29.8847 39.1984 31.7474 37.9026 33.3672L58.3117 53.7763L53.7763 58.3116ZM21.057 35.6349C25.1064 35.6349 28.5484 34.2176 31.383 31.383C34.2176 28.5484 35.6349 25.1064 35.6349 21.057C35.6349 17.0076 34.2176 13.5656 31.383 10.731C28.5484 7.89636 25.1064 6.47906 21.057 6.47906C17.0076 6.47906 13.5656 7.89636 10.731 10.731C7.89637 13.5656 6.47907 17.0076 6.47907 21.057C6.47907 25.1064 7.89637 28.5484 10.731 31.383C13.5656 34.2176 17.0076 35.6349 21.057 35.6349Z" fill="white"/>
</svg>
